<?xml version="1.0" standalone="no"?>
<!DOCTYPE svg PUBLIC "-//W3C//DTD SVG 20010904//EN"
 "http://www.w3.org/TR/2001/REC-SVG-20010904/DTD/svg10.dtd">
<svg version="1.0" xmlns="http://www.w3.org/2000/svg"
 width="900.000000pt" height="180.000000pt" viewBox="0 0 900.000000 180.000000"
 preserveAspectRatio="xMidYMid meet">
<metadata>
Created by potrace 1.10, written by Peter Selinger 2001-2011
</metadata>
<g transform="translate(0.000000,180.000000) scale(0.100000,-0.100000)"
fill="#d12327" stroke="none">
<path d="M2822 1667 c-45 -25 -44 -24 -187 -472 -190 -593 -199 -614 -287
-671 -49 -31 -93 -31 -113 -1 -14 22 -13 31 11 108 24 77 93 290 129 400 8 26
15 72 15 102 0 48 -4 60 -27 82 -39 36 -112 35 -160 -1 l-35 -26 -55 17 c-127
40 -276 -2 -335 -94 -15 -25 -62 -150 -104 -277 -75 -232 -97 -277 -153 -319
-24 -18 -88 -24 -111 -10 -18 11 -10 81 16 151 15 38 30 83 35 99 4 17 37 116
74 220 36 105 70 204 74 220 4 17 12 39 18 50 6 11 16 50 23 87 12 59 11 72
-5 125 -45 143 -156 208 -316 184 -73 -12 -130 -35 -186 -77 -40 -30 -45 -30
-80 4 -56 55 -83 66 -158 66 -60 0 -78 -4 -125 -30 l-55 -31 -39 29 c-24 17
-52 28 -71 28 -44 0 -101 -25 -120 -53 -25 -38 -382 -1128 -390 -1190 -7 -55
-6 -58 23 -86 43 -39 103 -48 146 -22 37 23 71 66 78 101 6 22 40 124 69 205
6 17 15 44 19 60 9 31 53 163 75 225 30 85 37 107 45 135 11 39 29 91 46 133
8 18 14 40 14 48 0 28 61 139 88 161 15 12 43 24 62 28 89 15 127 -46 97 -158
-12 -46 -174 -531 -229 -687 -3 -8 -14 -37 -23 -64 -23 -63 -23 -121 0 -146
42 -46 140 -50 187 -7 26 24 61 103 88 202 5 17 14 46 21 65 6 19 17 51 24 70
7 19 18 51 24 70 7 19 16 49 21 65 5 17 13 44 19 60 6 17 38 113 71 214 79
238 101 281 168 315 66 34 125 9 138 -59 5 -28 -15 -96 -107 -367 -104 -307
-112 -339 -112 -409 -1 -85 14 -117 80 -180 93 -88 226 -92 378 -12 l39 21 31
-23 c34 -26 94 -45 144 -45 42 0 111 19 132 37 8 7 20 13 26 13 6 0 16 7 23
15 18 22 33 19 86 -17 45 -30 51 -31 151 -31 66 0 108 4 115 11 15 15 55 16
63 2 3 -5 29 -10 57 -10 89 0 127 38 163 165 10 33 26 89 37 125 11 36 22 71
24 79 3 9 11 11 27 5 12 -4 47 -8 77 -10 51 -2 55 -4 52 -26 -21 -146 -6 -214
59 -272 94 -86 254 -72 396 35 l42 32 53 -35 c85 -55 154 -71 288 -65 137 6
198 22 315 84 44 24 169 151 198 203 15 25 44 99 66 165 21 66 45 132 52 148
16 34 47 35 83 2 35 -33 34 -67 -10 -195 -59 -171 -48 -248 48 -334 40 -37 58
-46 102 -51 66 -9 128 1 178 27 76 40 167 136 220 234 24 45 58 153 58 185 0
62 -103 93 -153 47 -13 -13 -34 -50 -47 -83 -24 -60 -71 -145 -98 -178 -17
-19 -68 -47 -87 -47 -7 0 -18 7 -26 16 -11 13 -10 27 5 82 10 37 22 71 27 77
5 5 9 18 9 28 0 10 6 33 13 50 34 82 46 132 38 167 -15 62 -28 85 -71 124 -39
35 -131 86 -156 86 -19 0 -50 44 -62 87 -17 59 -61 93 -120 93 -62 0 -92 -17
-119 -65 -26 -47 -30 -126 -8 -165 8 -14 14 -36 15 -50 0 -26 -66 -228 -88
-267 -7 -12 -12 -29 -12 -38 0 -22 -61 -114 -96 -146 -171 -156 -442 -142
-444 23 0 26 3 49 8 52 4 2 41 -5 81 -16 70 -19 76 -19 138 -4 146 37 244 140
258 272 12 105 -47 218 -139 267 -35 19 -57 22 -146 22 -93 0 -111 -3 -161
-27 -70 -33 -137 -107 -166 -185 -27 -71 -103 -311 -103 -324 0 -26 -45 -104
-84 -144 -37 -39 -48 -45 -85 -45 -52 0 -58 13 -35 82 21 62 23 160 4 183 -11
14 -8 22 27 58 81 86 93 177 35 280 -38 67 -103 105 -196 114 -37 3 -69 9 -71
14 -5 7 22 103 50 179 31 86 37 135 20 177 -23 58 -87 81 -143 50z m946 -614
c29 -43 33 -62 18 -97 -20 -48 -59 -70 -115 -62 -65 9 -74 21 -55 76 30 91 47
108 106 109 18 1 33 -8 46 -26z m-802 -8 c22 -22 17 -70 -12 -104 -25 -30 -28
-31 -97 -27 -83 4 -88 11 -54 71 40 70 123 101 163 60z m-899 -34 c29 -27 37
-94 18 -155 -8 -28 -26 -90 -39 -137 -32 -111 -47 -147 -80 -186 -23 -27 -35
-33 -67 -33 -63 0 -73 46 -35 170 8 25 22 72 31 105 9 33 23 78 30 100 7 22
16 52 19 67 7 32 61 88 85 88 9 0 26 -9 38 -19z"/>
<path d="M7063 1648 c-40 -44 -46 -67 -32 -110 15 -46 61 -78 110 -78 42 1 72
25 89 71 11 31 10 40 -9 77 -25 49 -46 62 -99 62 -27 0 -44 -7 -59 -22z"/>
<path d="M6315 1589 c-27 -4 -120 -14 -205 -23 -374 -39 -396 -43 -420 -73
-25 -33 -25 -58 0 -93 18 -25 29 -29 73 -32 l52 -3 -4 -68 c-1 -37 -11 -89
-20 -114 -16 -46 -19 -48 -65 -56 -59 -10 -92 -30 -100 -62 -10 -38 10 -73 54
-95 39 -20 40 -21 40 -74 0 -29 -7 -70 -15 -89 -8 -20 -15 -49 -15 -64 0 -43
-48 -157 -78 -186 -15 -14 -47 -30 -72 -36 -61 -14 -96 7 -135 83 -37 69 -47
76 -106 76 -65 0 -94 -32 -93 -103 1 -65 22 -107 84 -168 145 -143 427 -81
526 116 25 49 57 162 83 290 7 33 20 87 37 152 2 7 20 15 41 18 79 14 117 31
136 62 17 29 17 33 1 66 -18 38 -49 57 -94 57 -26 0 -30 4 -30 29 0 16 7 48
15 71 8 23 15 54 15 69 0 46 14 56 92 62 141 12 273 33 296 47 36 23 44 47 32
90 -12 47 -49 62 -125 51z"/>
<path d="M8179 1435 c-139 -38 -205 -120 -238 -295 -36 -187 -71 -296 -115
-353 -8 -10 -29 -18 -52 -20 -38 -2 -39 -1 -42 36 -2 21 3 62 11 90 8 29 21
72 28 97 35 125 5 203 -99 258 -33 18 -67 32 -77 32 -23 0 -75 38 -75 56 0 8
-16 32 -36 54 -33 36 -41 40 -84 40 -44 0 -52 -4 -79 -37 -44 -53 -49 -102
-17 -162 25 -48 25 -51 11 -113 -8 -34 -22 -88 -31 -118 -8 -30 -20 -73 -26
-95 -5 -22 -13 -49 -18 -60 -4 -11 -12 -32 -19 -47 -6 -16 -29 -48 -52 -73
-44 -48 -78 -57 -114 -31 -18 13 -18 18 -7 77 7 35 16 84 21 109 4 25 14 68
21 95 37 153 43 182 43 232 0 66 -28 103 -79 103 -69 0 -103 -57 -135 -230
-16 -87 -34 -165 -40 -175 -4 -5 -10 -35 -14 -65 -12 -101 -69 -184 -137 -199
-66 -15 -79 10 -57 106 11 48 23 103 54 243 9 41 23 101 31 133 14 56 13 61
-7 102 -33 65 -90 74 -158 23 -39 -29 -46 -30 -75 -20 -110 40 -264 -24 -302
-126 -10 -26 -22 -53 -28 -61 -6 -8 -14 -46 -18 -85 -6 -65 -19 -134 -47 -241
-25 -98 -9 -166 57 -233 74 -76 186 -78 281 -5 24 18 47 33 50 33 3 0 21 -9
39 -20 26 -16 50 -20 117 -20 90 0 127 11 199 63 35 24 41 26 56 12 21 -19 95
-45 129 -45 34 0 138 33 153 48 7 7 17 12 24 12 17 0 99 93 131 148 32 54 63
140 73 202 8 53 29 135 41 168 12 31 49 28 83 -7 31 -33 31 -43 1 -161 -39
-148 -25 -216 58 -284 42 -34 48 -36 116 -36 83 0 125 17 190 78 l43 40 60
-31 c57 -28 69 -30 177 -31 130 -1 194 14 291 71 71 41 162 134 193 198 34 67
46 175 22 198 -19 19 -76 22 -106 6 -22 -11 -59 -88 -59 -120 0 -26 -27 -67
-69 -104 -73 -64 -151 -95 -240 -95 -60 0 -65 2 -98 37 -34 38 -49 71 -41 95
3 9 33 13 109 14 94 1 108 3 151 28 75 43 122 106 143 190 18 71 18 71 -4 119
-33 73 -97 132 -164 151 -63 18 -84 18 -148 1z m115 -195 c18 -34 18 -38 2
-71 -17 -37 -64 -63 -87 -48 -8 5 -24 9 -36 9 -12 0 -24 4 -27 8 -8 13 13 91
31 118 13 21 23 25 57 22 35 -3 44 -8 60 -38z m-1799 -196 c6 -12 17 -29 24
-38 11 -13 11 -25 2 -59 -10 -41 -22 -99 -42 -206 -22 -118 -88 -182 -141
-134 -23 20 -24 74 -3 166 8 37 21 97 29 135 8 37 17 78 20 92 13 63 87 92
111 44z"/>
</g>
</svg>
